<svg xmlns="http://www.w3.org/2000/svg" xmlns:xlink="http://www.w3.org/1999/xlink" version="1.1" width="256" height="256" viewBox="0 0 256 256" xml:space="preserve">
<desc>Created with Fabric.js 1.7.22</desc>
<defs>
</defs>
<g transform="translate(128 128) scale(0.72 0.72)" style="">
	<g style="stroke: none; stroke-width: 0; stroke-dasharray: none; stroke-linecap: butt; stroke-linejoin: miter; stroke-miterlimit: 10; fill: none; fill-rule: nonzero; opacity: 1;" transform="translate(-175.05 -175.05000000000004) scale(3.89 3.89)" >
	<circle cx="45" cy="45" r="45" style="stroke: none; stroke-width: 1; stroke-dasharray: none; stroke-linecap: butt; stroke-linejoin: miter; stroke-miterlimit: 10; fill: rgb(32,196,203); fill-rule: nonzero; opacity: 1;" transform="  matrix(1 0 0 1 0 0) "/>
	<path d="M 57.105 26.909 c -0.005 0 -0.009 0.001 -0.013 0.001 v -1.251 c 0 -1.64 -1.342 -2.982 -2.982 -2.982 H 19.482 c -1.64 0 -2.982 1.342 -2.982 2.982 v 45.016 c 0 1.64 1.342 2.982 2.982 2.982 H 54.11 c 1.64 0 2.982 -1.342 2.982 -2.982 v -9.988 c 0.005 0 0.009 0.001 0.013 0.001 c 8.871 0 16.062 -7.562 16.062 -16.89 S 65.976 26.909 57.105 26.909 z M 57.105 53.691 c -0.005 0 -0.009 -0.001 -0.013 -0.001 V 33.907 c 0.005 0 0.009 -0.001 0.013 -0.001 c 5.196 0 9.408 4.429 9.408 9.892 S 62.301 53.691 57.105 53.691 z" style="stroke: none; stroke-width: 1; stroke-dasharray: none; stroke-linecap: butt; stroke-linejoin: miter; stroke-miterlimit: 10; fill: rgb(27,167,173); fill-rule: nonzero; opacity: 1;" transform=" matrix(1 0 0 1 0 0) " stroke-linecap="round" />
	<path d="M 60.438 23.576 c -0.005 0 -0.009 0.001 -0.013 0.001 v -1.251 c 0 -1.64 -1.342 -2.982 -2.982 -2.982 H 22.815 c -1.64 0 -2.982 1.342 -2.982 2.982 v 45.016 c 0 1.64 1.342 2.982 2.982 2.982 h 34.628 c 1.64 0 2.982 -1.342 2.982 -2.982 v -9.988 c 0.005 0 0.009 0.001 0.013 0.001 c 8.871 0 16.062 -7.562 16.062 -16.89 S 69.309 23.576 60.438 23.576 z M 60.438 50.358 c -0.005 0 -0.009 -0.001 -0.013 -0.001 V 30.573 c 0.005 0 0.009 -0.001 0.013 -0.001 c 5.196 0 9.408 4.429 9.408 9.892 S 65.634 50.358 60.438 50.358 z" style="stroke: none; stroke-width: 1; stroke-dasharray: none; stroke-linecap: butt; stroke-linejoin: miter; stroke-miterlimit: 10; fill: rgb(255,255,255); fill-rule: nonzero; opacity: 1;" transform=" matrix(1 0 0 1 0 0) " stroke-linecap="round" />
</g>
</g>
</svg>